<svg width="21" height="20" viewBox="0 0 21 20" fill="none" xmlns="http://www.w3.org/2000/svg">
<path fill-rule="evenodd" clip-rule="evenodd" d="M2.5 10C2.5 5.584 6.084 2 10.5 2C14.916 2 18.5 5.584 18.5 10C18.5 14.416 14.916 18 10.5 18C6.084 18 2.5 14.416 2.5 10ZM15.7071 8.70711C16.0976 8.31659 16.0976 7.68342 15.7071 7.2929C15.3166 6.90237 14.6834 6.90237 14.2929 7.29289L11.5929 9.99289L9.03444 12.5513L6.73994 10.0273C6.36844 9.61867 5.73599 9.58855 5.32733 9.96006C4.91867 10.3316 4.88855 10.964 5.26006 11.3727L8.26001 14.6727C8.44397 14.875 8.70277 14.9932 8.97616 14.9997C9.24956 15.0062 9.51369 14.9005 9.70706 14.7071L13.0071 11.4071L15.7071 8.70711Z" fill="#296AFF"/>
</svg>
