<svg width="128" height="128" viewBox="0 0 128 128" fill="none" xmlns="http://www.w3.org/2000/svg">
<g opacity="0.5">
<path fill-rule="evenodd" clip-rule="evenodd" d="M54.584 48.5312C54.8516 47.9188 55 47.2424 55 46.5312C55 43.7698 52.7614 41.5312 50 41.5312C47.2386 41.5312 45 43.7698 45 46.5312C45 47.2424 45.1484 47.9188 45.416 48.5312H38C36.8954 48.5312 36 49.4267 36 50.5313V57.9473C35.3875 57.6797 34.7111 57.5312 34 57.5312C31.2386 57.5312 29 59.7698 29 62.5312C29 65.2927 31.2386 67.5312 34 67.5312C34.7111 67.5312 35.3875 67.3828 36 67.1152V74.5312C36 75.6358 36.8954 76.5312 38 76.5312H45.416C45.1484 75.9188 45 75.2424 45 74.5312C45 71.7698 47.2386 69.5312 50 69.5312C52.7614 69.5312 55 71.7698 55 74.5312C55 75.2424 54.8516 75.9188 54.584 76.5312H62C63.1046 76.5312 64 75.6358 64 74.5312V67.1152C64.6125 67.3828 65.2889 67.5312 66 67.5312C68.7614 67.5312 71 65.2927 71 62.5312C71 59.7698 68.7614 57.5312 66 57.5312C65.2889 57.5312 64.6125 57.6797 64 57.9473V50.5312C64 49.4267 63.1046 48.5312 62 48.5312H54.584Z" fill="white"/>
<path fill-rule="evenodd" clip-rule="evenodd" d="M54.584 48.5312C54.8516 47.9188 55 47.2424 55 46.5312C55 43.7698 52.7614 41.5312 50 41.5312C47.2386 41.5312 45 43.7698 45 46.5312C45 47.2424 45.1484 47.9188 45.416 48.5312H38C36.8954 48.5312 36 49.4267 36 50.5313V57.9473C35.3875 57.6797 34.7111 57.5312 34 57.5312C31.2386 57.5312 29 59.7698 29 62.5312C29 65.2927 31.2386 67.5312 34 67.5312C34.7111 67.5312 35.3875 67.3828 36 67.1152V74.5312C36 75.6358 36.8954 76.5312 38 76.5312H45.416C45.1484 75.9188 45 75.2424 45 74.5312C45 71.7698 47.2386 69.5312 50 69.5312C52.7614 69.5312 55 71.7698 55 74.5312C55 75.2424 54.8516 75.9188 54.584 76.5312H62C63.1046 76.5312 64 75.6358 64 74.5312V67.1152C64.6125 67.3828 65.2889 67.5312 66 67.5312C68.7614 67.5312 71 65.2927 71 62.5312C71 59.7698 68.7614 57.5312 66 57.5312C65.2889 57.5312 64.6125 57.6797 64 57.9473V50.5312C64 49.4267 63.1046 48.5312 62 48.5312H54.584Z" fill="url(#paint0_linear_2159_6554)" fill-opacity="0.7"/>
</g>
<g opacity="0.5">
<path fill-rule="evenodd" clip-rule="evenodd" d="M54.584 76.5312C54.8516 75.9188 55 75.2424 55 74.5312C55 71.7698 52.7614 69.5312 50 69.5312C47.2386 69.5312 45 71.7698 45 74.5312C45 75.2424 45.1484 75.9188 45.416 76.5312H38C36.8954 76.5312 36 77.4267 36 78.5313V85.9473C35.3875 85.6797 34.7111 85.5312 34 85.5312C31.2386 85.5312 29 87.7698 29 90.5312C29 93.2927 31.2386 95.5312 34 95.5312C34.7111 95.5312 35.3875 95.3828 36 95.1152V102.531C36 103.636 36.8954 104.531 38 104.531H45.416C45.1484 103.919 45 103.242 45 102.531C45 99.7698 47.2386 97.5312 50 97.5312C52.7614 97.5312 55 99.7698 55 102.531C55 103.242 54.8516 103.919 54.584 104.531H62C63.1046 104.531 64 103.636 64 102.531V95.1152C64.6125 95.3828 65.2889 95.5312 66 95.5312C68.7614 95.5312 71 93.2927 71 90.5312C71 87.7698 68.7614 85.5312 66 85.5312C65.2889 85.5312 64.6125 85.6797 64 85.9473V78.5312C64 77.4267 63.1046 76.5312 62 76.5312H54.584Z" fill="white"/>
<path fill-rule="evenodd" clip-rule="evenodd" d="M54.584 76.5312C54.8516 75.9188 55 75.2424 55 74.5312C55 71.7698 52.7614 69.5312 50 69.5312C47.2386 69.5312 45 71.7698 45 74.5312C45 75.2424 45.1484 75.9188 45.416 76.5312H38C36.8954 76.5312 36 77.4267 36 78.5313V85.9473C35.3875 85.6797 34.7111 85.5312 34 85.5312C31.2386 85.5312 29 87.7698 29 90.5312C29 93.2927 31.2386 95.5312 34 95.5312C34.7111 95.5312 35.3875 95.3828 36 95.1152V102.531C36 103.636 36.8954 104.531 38 104.531H45.416C45.1484 103.919 45 103.242 45 102.531C45 99.7698 47.2386 97.5312 50 97.5312C52.7614 97.5312 55 99.7698 55 102.531C55 103.242 54.8516 103.919 54.584 104.531H62C63.1046 104.531 64 103.636 64 102.531V95.1152C64.6125 95.3828 65.2889 95.5312 66 95.5312C68.7614 95.5312 71 93.2927 71 90.5312C71 87.7698 68.7614 85.5312 66 85.5312C65.2889 85.5312 64.6125 85.6797 64 85.9473V78.5312C64 77.4267 63.1046 76.5312 62 76.5312H54.584Z" fill="#B3B3B3" fill-opacity="0.5"/>
</g>
<g opacity="0.5">
<path fill-rule="evenodd" clip-rule="evenodd" d="M73 74.5312C73 75.2424 73.1484 75.9188 73.416 76.5312L66 76.5312C64.8954 76.5312 64 77.4267 64 78.5312V85.9473C64.6125 85.6797 65.2889 85.5312 66 85.5312C68.7614 85.5312 71 87.7698 71 90.5312C71 93.2927 68.7614 95.5312 66 95.5312C65.2889 95.5312 64.6125 95.3828 64 95.1152V102.531C64 103.636 64.8954 104.531 66 104.531H73.416C73.1484 105.144 73 105.82 73 106.531C73 109.293 75.2386 111.531 78 111.531C80.7614 111.531 83 109.293 83 106.531C83 105.82 82.8516 105.144 82.584 104.531H90C91.1046 104.531 92 103.636 92 102.531V95.1152C92.6125 95.3828 93.2889 95.5312 94 95.5312C96.7614 95.5312 99 93.2927 99 90.5312C99 87.7698 96.7614 85.5312 94 85.5312C93.2889 85.5312 92.6125 85.6797 92 85.9473V78.5312C92 77.4267 91.1046 76.5312 90 76.5312L82.584 76.5312C82.8516 75.9188 83 75.2424 83 74.5312C83 71.7698 80.7614 69.5312 78 69.5312C75.2386 69.5312 73 71.7698 73 74.5312Z" fill="#D9D9D9"/>
<path fill-rule="evenodd" clip-rule="evenodd" d="M73 74.5312C73 75.2424 73.1484 75.9188 73.416 76.5312L66 76.5312C64.8954 76.5312 64 77.4267 64 78.5312V85.9473C64.6125 85.6797 65.2889 85.5312 66 85.5312C68.7614 85.5312 71 87.7698 71 90.5312C71 93.2927 68.7614 95.5312 66 95.5312C65.2889 95.5312 64.6125 95.3828 64 95.1152V102.531C64 103.636 64.8954 104.531 66 104.531H73.416C73.1484 105.144 73 105.82 73 106.531C73 109.293 75.2386 111.531 78 111.531C80.7614 111.531 83 109.293 83 106.531C83 105.82 82.8516 105.144 82.584 104.531H90C91.1046 104.531 92 103.636 92 102.531V95.1152C92.6125 95.3828 93.2889 95.5312 94 95.5312C96.7614 95.5312 99 93.2927 99 90.5312C99 87.7698 96.7614 85.5312 94 85.5312C93.2889 85.5312 92.6125 85.6797 92 85.9473V78.5312C92 77.4267 91.1046 76.5312 90 76.5312L82.584 76.5312C82.8516 75.9188 83 75.2424 83 74.5312C83 71.7698 80.7614 69.5312 78 69.5312C75.2386 69.5312 73 71.7698 73 74.5312Z" fill="white"/>
<path fill-rule="evenodd" clip-rule="evenodd" d="M73 74.5312C73 75.2424 73.1484 75.9188 73.416 76.5312L66 76.5312C64.8954 76.5312 64 77.4267 64 78.5312V85.9473C64.6125 85.6797 65.2889 85.5312 66 85.5312C68.7614 85.5312 71 87.7698 71 90.5312C71 93.2927 68.7614 95.5312 66 95.5312C65.2889 95.5312 64.6125 95.3828 64 95.1152V102.531C64 103.636 64.8954 104.531 66 104.531H73.416C73.1484 105.144 73 105.82 73 106.531C73 109.293 75.2386 111.531 78 111.531C80.7614 111.531 83 109.293 83 106.531C83 105.82 82.8516 105.144 82.584 104.531H90C91.1046 104.531 92 103.636 92 102.531V95.1152C92.6125 95.3828 93.2889 95.5312 94 95.5312C96.7614 95.5312 99 93.2927 99 90.5312C99 87.7698 96.7614 85.5312 94 85.5312C93.2889 85.5312 92.6125 85.6797 92 85.9473V78.5312C92 77.4267 91.1046 76.5312 90 76.5312L82.584 76.5312C82.8516 75.9188 83 75.2424 83 74.5312C83 71.7698 80.7614 69.5312 78 69.5312C75.2386 69.5312 73 71.7698 73 74.5312Z" fill="url(#paint1_linear_2159_6554)" fill-opacity="0.7"/>
</g>
<path fill-rule="evenodd" clip-rule="evenodd" d="M92.3344 29.8451C93.1155 29.064 94.3818 29.064 95.1629 29.8451L100.407 35.089C100.651 34.4667 101.024 33.8834 101.527 33.3806C103.479 31.428 106.645 31.428 108.598 33.3806C110.551 35.3332 110.551 38.499 108.598 40.4517C108.095 40.9545 107.512 41.3278 106.889 41.5717L112.133 46.8156C112.914 47.5967 112.914 48.863 112.133 49.6441L106.889 54.888C107.512 55.1318 108.095 55.5052 108.598 56.008C110.551 57.9606 110.551 61.1265 108.598 63.0791C106.645 65.0317 103.479 65.0317 101.527 63.0791C101.024 62.5763 100.651 61.993 100.407 61.3707L95.1629 66.6146C94.3818 67.3957 93.1155 67.3957 92.3344 66.6146L87.0905 61.3707C87.7128 61.1268 88.2961 60.7535 88.7989 60.2507C90.7515 58.298 90.7515 55.1322 88.7989 53.1796C86.8463 51.227 83.6804 51.227 81.7278 53.1796C81.225 53.6824 80.8517 54.2657 80.6078 54.888L75.3639 49.6441C74.5828 48.863 74.5828 47.5967 75.3639 46.8156L80.6078 41.5717C79.9855 41.3278 79.4022 40.9545 78.8994 40.4517C76.9468 38.499 76.9468 35.3332 78.8994 33.3806C80.852 31.428 84.0178 31.428 85.9705 33.3806C86.4733 33.8834 86.8466 34.4667 87.0905 35.089L92.3344 29.8451Z" fill="url(#paint2_linear_2159_6554)"/>
<path fill-rule="evenodd" clip-rule="evenodd" d="M92.3344 29.8451C93.1155 29.064 94.3818 29.064 95.1629 29.8451L100.407 35.089C100.651 34.4667 101.024 33.8834 101.527 33.3806C103.479 31.428 106.645 31.428 108.598 33.3806C110.551 35.3332 110.551 38.499 108.598 40.4517C108.095 40.9545 107.512 41.3278 106.889 41.5717L112.133 46.8156C112.914 47.5967 112.914 48.863 112.133 49.6441L106.889 54.888C107.512 55.1318 108.095 55.5052 108.598 56.008C110.551 57.9606 110.551 61.1265 108.598 63.0791C106.645 65.0317 103.479 65.0317 101.527 63.0791C101.024 62.5763 100.651 61.993 100.407 61.3707L95.1629 66.6146C94.3818 67.3957 93.1155 67.3957 92.3344 66.6146L87.0905 61.3707C87.7128 61.1268 88.2961 60.7535 88.7989 60.2507C90.7515 58.298 90.7515 55.1322 88.7989 53.1796C86.8463 51.227 83.6804 51.227 81.7278 53.1796C81.225 53.6824 80.8517 54.2657 80.6078 54.888L75.3639 49.6441C74.5828 48.863 74.5828 47.5967 75.3639 46.8156L80.6078 41.5717C79.9855 41.3278 79.4022 40.9545 78.8994 40.4517C76.9468 38.499 76.9468 35.3332 78.8994 33.3806C80.852 31.428 84.0178 31.428 85.9705 33.3806C86.4733 33.8834 86.8466 34.4667 87.0905 35.089L92.3344 29.8451Z" fill="url(#paint3_linear_2159_6554)"/>
<path fill-rule="evenodd" clip-rule="evenodd" d="M92.3344 29.8451C93.1155 29.064 94.3818 29.064 95.1629 29.8451L100.407 35.089C100.651 34.4667 101.024 33.8834 101.527 33.3806C103.479 31.428 106.645 31.428 108.598 33.3806C110.551 35.3332 110.551 38.499 108.598 40.4517C108.095 40.9545 107.512 41.3278 106.889 41.5717L112.133 46.8156C112.914 47.5967 112.914 48.863 112.133 49.6441L106.889 54.888C107.512 55.1318 108.095 55.5052 108.598 56.008C110.551 57.9606 110.551 61.1265 108.598 63.0791C106.645 65.0317 103.479 65.0317 101.527 63.0791C101.024 62.5763 100.651 61.993 100.407 61.3707L95.1629 66.6146C94.3818 67.3957 93.1155 67.3957 92.3344 66.6146L87.0905 61.3707C87.7128 61.1268 88.2961 60.7535 88.7989 60.2507C90.7515 58.298 90.7515 55.1322 88.7989 53.1796C86.8463 51.227 83.6804 51.227 81.7278 53.1796C81.225 53.6824 80.8517 54.2657 80.6078 54.888L75.3639 49.6441C74.5828 48.863 74.5828 47.5967 75.3639 46.8156L80.6078 41.5717C79.9855 41.3278 79.4022 40.9545 78.8994 40.4517C76.9468 38.499 76.9468 35.3332 78.8994 33.3806C80.852 31.428 84.0178 31.428 85.9705 33.3806C86.4733 33.8834 86.8466 34.4667 87.0905 35.089L92.3344 29.8451Z" fill="url(#paint4_linear_2159_6554)"/>
<path d="M67.4126 41.9995C67.2011 42.7166 66.3061 42.9564 65.7644 42.4412L62.8277 39.6484C62.2618 39.1101 62.5036 38.1599 63.258 37.9578L67.3415 36.8636C68.0959 36.6615 68.7804 37.3635 68.5594 38.1125L67.4126 41.9995Z" fill="#F9F9F9"/>
<circle cx="62.6969" cy="27.6967" r="12" transform="rotate(-15 62.6969 27.6967)" fill="#F9F9F9"/>
<path d="M61.1294 21.8462L62.9262 28.5521" stroke="#707070" stroke-width="3" stroke-linecap="round"/>
<path d="M64.2351 33.4375L64.3379 33.821" stroke="#707070" stroke-width="3" stroke-linecap="round"/>
<path d="M17 30.0703L29.2474 37.1414" stroke="white" stroke-width="2" stroke-linecap="round"/>
<path d="M26.6592 27.4819L19.5881 39.7294" stroke="white" stroke-width="2" stroke-linecap="round"/>
<path d="M102.61 107.486C103.154 106.942 104.083 107.191 104.283 107.934L106.524 116.299C106.723 117.043 106.043 117.723 105.299 117.524L96.9342 115.283C96.1906 115.083 95.9416 114.154 96.4859 113.61L102.61 107.486Z" stroke="white" stroke-width="2"/>
<defs>
<linearGradient id="paint0_linear_2159_6554" x1="52.1965" y1="41.4284" x2="52.1965" y2="76.5312" gradientUnits="userSpaceOnUse">
<stop offset="0.442708" stop-color="#808080"/>
<stop offset="1" stop-color="#8D8D8D"/>
</linearGradient>
<linearGradient id="paint1_linear_2159_6554" x1="83.3304" y1="69.4078" x2="83.3304" y2="111.531" gradientUnits="userSpaceOnUse">
<stop offset="0.442708" stop-color="#808080"/>
<stop offset="1" stop-color="#8D8D8D"/>
</linearGradient>
<linearGradient id="paint2_linear_2159_6554" x1="95.7328" y1="29.1478" x2="95.7328" y2="67.2004" gradientUnits="userSpaceOnUse">
<stop stop-color="#B3B3B3"/>
<stop offset="1" stop-color="#848484"/>
</linearGradient>
<linearGradient id="paint3_linear_2159_6554" x1="95.7328" y1="29.1478" x2="95.7328" y2="67.2004" gradientUnits="userSpaceOnUse">
<stop stop-color="#B3B3B3"/>
<stop offset="1" stop-color="#848484"/>
</linearGradient>
<linearGradient id="paint4_linear_2159_6554" x1="95.7328" y1="29.1478" x2="95.7328" y2="67.2004" gradientUnits="userSpaceOnUse">
<stop stop-color="#ADADAD"/>
<stop offset="1" stop-color="#707070"/>
</linearGradient>
</defs>
</svg>
