<svg width="32" height="32" viewBox="0 0 32 32" fill="none" xmlns="http://www.w3.org/2000/svg">
<rect x="6" y="15" width="20" height="12" rx="2" fill="#A5A5A5"/>
<path d="M6 13C6 11.8954 6.89543 11 8 11H24C25.1046 11 26 11.8954 26 13V19H6V13Z" fill="#DCDCDC"/>
<path d="M10.5 8C10.5 6.61929 11.6193 5.5 13 5.5C14.3807 5.5 15.5 6.61929 15.5 8V10.5H13C11.6193 10.5 10.5 9.38071 10.5 8Z" stroke="#5B5653"/>
<path d="M21.5 8C21.5 6.61929 20.3807 5.5 19 5.5C17.6193 5.5 16.5 6.61929 16.5 8V10.5H19C20.3807 10.5 21.5 9.38071 21.5 8Z" stroke="#5B5653"/>
<path d="M16 11H24C25.1046 11 26 11.8954 26 13V25C26 26.1046 25.1046 27 24 27H16V11Z" fill="black" fill-opacity="0.1"/>
<path d="M15 10L19 14" stroke="#5B5653"/>
<path d="M17 10L13 14" stroke="#5B5653"/>
<circle cx="24" cy="20" r="7" fill="url(#paint0_linear_2032_11746)"/>
<path d="M24 17V20" stroke="#096C35" stroke-linecap="round"/>
<path d="M27.8972 22.25L24.0001 20" stroke="#096C35" stroke-linecap="round"/>
<defs>
<linearGradient id="paint0_linear_2032_11746" x1="24" y1="13" x2="24" y2="27" gradientUnits="userSpaceOnUse">
<stop stop-color="#FFE922"/>
<stop offset="1" stop-color="#FFCB12"/>
</linearGradient>
</defs>
</svg>
