<svg width="129" height="128" viewBox="0 0 129 128" fill="none" xmlns="http://www.w3.org/2000/svg">
<path d="M34.5 57.0938L57.4787 81L106.5 30" stroke="url(#paint0_linear_2147_4053)" stroke-width="12"/>
<path opacity="0.4" fill-rule="evenodd" clip-rule="evenodd" d="M104.5 64C104.5 86.0914 86.5914 104 64.5 104C42.4086 104 24.5 86.0914 24.5 64C24.5 41.9086 42.4086 24 64.5 24C73.5386 24 81.8769 26.9979 88.575 32.0536L91.3651 29.1509C83.9332 23.4133 74.6152 20 64.5 20C40.1995 20 20.5 39.6995 20.5 64C20.5 88.3005 40.1995 108 64.5 108C88.8005 108 108.5 88.3005 108.5 64C108.5 58.2569 107.4 52.7708 105.398 47.741L102.32 50.9431C103.733 55.0352 104.5 59.428 104.5 64Z" fill="url(#paint1_linear_2147_4053)"/>
<path opacity="0.5" fill-rule="evenodd" clip-rule="evenodd" d="M19.5 16C26.1274 16 31.5 10.6274 31.5 4C31.5 10.6274 36.8726 16 43.5 16C36.8726 16 31.5 21.3726 31.5 28C31.5 21.3726 26.1274 16 19.5 16Z" fill="#0FB85A"/>
<path opacity="0.6" fill-rule="evenodd" clip-rule="evenodd" d="M96.5 105.5C101.747 105.5 106 101.247 106 96C106 101.247 110.253 105.5 115.5 105.5C110.253 105.5 106 109.753 106 115C106 109.753 101.747 105.5 96.5 105.5Z" fill="url(#paint2_linear_2147_4053)"/>
<path opacity="0.3" fill-rule="evenodd" clip-rule="evenodd" d="M6.5 86C10.366 86 13.5 82.866 13.5 79C13.5 82.866 16.634 86 20.5 86C16.634 86 13.5 89.134 13.5 93C13.5 89.134 10.366 86 6.5 86Z" fill="url(#paint3_linear_2147_4053)"/>
<defs>
<linearGradient id="paint0_linear_2147_4053" x1="70.5" y1="30" x2="70.5" y2="81" gradientUnits="userSpaceOnUse">
<stop stop-color="#0FB85A"/>
<stop offset="1" stop-color="#08A24C"/>
</linearGradient>
<linearGradient id="paint1_linear_2147_4053" x1="69.1021" y1="19.7414" x2="69.1021" y2="108" gradientUnits="userSpaceOnUse">
<stop stop-color="#BBBBBB"/>
<stop offset="1" stop-color="#8D8D8D"/>
</linearGradient>
<linearGradient id="paint2_linear_2147_4053" x1="106.994" y1="95.9442" x2="106.994" y2="115" gradientUnits="userSpaceOnUse">
<stop stop-color="#BBBBBB"/>
<stop offset="1" stop-color="#8D8D8D"/>
</linearGradient>
<linearGradient id="paint3_linear_2147_4053" x1="14.2322" y1="78.9589" x2="14.2322" y2="93" gradientUnits="userSpaceOnUse">
<stop stop-color="#BBBBBB"/>
<stop offset="1" stop-color="#8D8D8D"/>
</linearGradient>
</defs>
</svg>
