<svg width="33" height="32" viewBox="0 0 33 32" fill="none" xmlns="http://www.w3.org/2000/svg">
<rect x="6.5" y="15" width="20" height="12" rx="2" fill="#A5A5A5"/>
<path d="M6.5 13C6.5 11.8954 7.39543 11 8.5 11H24.5C25.6046 11 26.5 11.8954 26.5 13V19H6.5V13Z" fill="#DCDCDC"/>
<path d="M11 8C11 6.61929 12.1193 5.5 13.5 5.5C14.8807 5.5 16 6.61929 16 8V10.5H13.5C12.1193 10.5 11 9.38071 11 8Z" stroke="#5B5653"/>
<path d="M22 8C22 6.61929 20.8807 5.5 19.5 5.5C18.1193 5.5 17 6.61929 17 8V10.5H19.5C20.8807 10.5 22 9.38071 22 8Z" stroke="#5B5653"/>
<path d="M16.5 11H24.5C25.6046 11 26.5 11.8954 26.5 13V25C26.5 26.1046 25.6046 27 24.5 27H16.5V11Z" fill="black" fill-opacity="0.1"/>
<path d="M15.5 10L19.5 14" stroke="#5B5653"/>
<path d="M17.5 10L13.5 14" stroke="#5B5653"/>
</svg>
