<svg width="320" height="60" viewBox="0 0 320 60" fill="none" xmlns="http://www.w3.org/2000/svg">
<path d="M21.5 6C9 6 0 44 0 44H42C42 44 34 6 21.5 6Z" fill="white"/>
<path d="M21.5 6C9 6 0 44 0 44H42C42 44 34 6 21.5 6Z" fill="#FFFFFF"/>
<path d="M298.5 6C311 6 320 44 320 44H278C278 44 286 6 298.5 6Z" fill="white"/>
<path d="M298.5 6C311 6 320 44 320 44H278C278 44 286 6 298.5 6Z" fill="#FFFFFF"/>
<path d="M16.0969 10.8776C15.5345 8.3769 17.4363 6 19.9994 6H300.001C302.564 6 304.465 8.3769 303.903 10.8776L296.817 42.3879C294.765 51.5151 286.66 58 277.304 58H42.6955C33.3404 58 25.2352 51.5151 23.1828 42.3879L16.0969 10.8776Z" fill="white"/>
<path d="M16.0969 10.8776C15.5345 8.3769 17.4363 6 19.9994 6H300.001C302.564 6 304.465 8.3769 303.903 10.8776L296.817 42.3879C294.765 51.5151 286.66 58 277.304 58H42.6955C33.3404 58 25.2352 51.5151 23.1828 42.3879L16.0969 10.8776Z" fill="#FFFFFF" />
<path d="M17.5603 10.5485C17.2088 8.98556 18.3974 7.5 19.9994 7.5H300.001C301.603 7.5 302.791 8.98555 302.44 10.5485L295.354 42.0588C293.455 50.5014 285.958 56.5 277.305 56.5H42.6955C34.042 56.5 26.5448 50.5014 24.6462 42.0588L17.5603 10.5485Z" stroke="url(#paint0_linear_2383_13288)" stroke-width="3"/>
<defs>
<linearGradient id="paint0_linear_2383_13288" x1="160" y1="20.7333" x2="160" y2="58" gradientUnits="userSpaceOnUse">
<stop stop-color="white" stop-opacity="0"/>
<stop offset="1" stop-color="white"/>
</linearGradient>
</defs>
</svg>
